<svg width="99" height="98" viewBox="0 0 99 98" fill="none" xmlns="http://www.w3.org/2000/svg">
<rect width="2.67568" height="2.67953" rx="0.433006" fill="white"/>
<rect x="10.7031" width="2.67568" height="2.67953" rx="0.433006" fill="white"/>
<rect x="21.4062" width="2.67568" height="2.67953" rx="0.433006" fill="white"/>
<rect x="32.1094" width="2.67568" height="2.67953" rx="0.433006" fill="white"/>
<rect x="42.8086" width="2.67568" height="2.67953" rx="0.433006" fill="white"/>
<rect x="53.5117" width="2.67568" height="2.67953" rx="0.433006" fill="white"/>
<rect x="64.2148" width="2.67568" height="2.67953" rx="0.433006" fill="white"/>
<rect x="74.918" width="2.67568" height="2.67953" rx="0.433006" fill="white"/>
<rect x="85.6211" width="2.67568" height="2.67953" rx="0.433006" fill="white"/>
<rect x="96.3242" width="2.67568" height="2.67953" rx="0.433006" fill="white"/>
<rect y="10.7183" width="2.67568" height="2.67953" rx="0.433006" fill="white"/>
<rect x="10.7031" y="10.7183" width="2.67568" height="2.67953" rx="0.433006" fill="white"/>
<rect x="21.4062" y="10.7183" width="2.67568" height="2.67953" rx="0.433006" fill="white"/>
<rect x="32.1094" y="10.7183" width="2.67568" height="2.67953" rx="0.433006" fill="white"/>
<rect x="42.8086" y="10.7183" width="2.67568" height="2.67953" rx="0.433006" fill="white"/>
<rect x="53.5117" y="10.7183" width="2.67568" height="2.67953" rx="0.433006" fill="white"/>
<rect x="64.2148" y="10.7183" width="2.67568" height="2.67953" rx="0.433006" fill="white"/>
<rect x="74.918" y="10.7183" width="2.67568" height="2.67953" rx="0.433006" fill="white"/>
<rect x="85.6211" y="10.7183" width="2.67568" height="2.67953" rx="0.433006" fill="white"/>
<rect x="96.3242" y="10.7183" width="2.67568" height="2.67953" rx="0.433006" fill="white"/>
<rect y="21.4365" width="2.67568" height="2.67953" rx="0.433006" fill="white"/>
<rect x="10.7031" y="21.4365" width="2.67568" height="2.67953" rx="0.433006" fill="white"/>
<rect x="21.4062" y="21.4365" width="2.67568" height="2.67953" rx="0.433006" fill="white"/>
<rect x="32.1094" y="21.4365" width="2.67568" height="2.67953" rx="0.433006" fill="white"/>
<rect x="42.8086" y="21.4365" width="2.67568" height="2.67953" rx="0.433006" fill="white"/>
<rect x="53.5117" y="21.4365" width="2.67568" height="2.67953" rx="0.433006" fill="white"/>
<rect x="64.2148" y="21.4365" width="2.67568" height="2.67953" rx="0.433006" fill="white"/>
<rect x="74.918" y="21.4365" width="2.67568" height="2.67953" rx="0.433006" fill="white"/>
<rect x="85.6211" y="21.4365" width="2.67568" height="2.67953" rx="0.433006" fill="white"/>
<rect x="96.3242" y="21.4365" width="2.67568" height="2.67953" rx="0.433006" fill="white"/>
<rect y="32.1543" width="2.67568" height="2.67953" rx="0.433006" fill="white"/>
<rect x="10.7031" y="32.1543" width="2.67568" height="2.67953" rx="0.433006" fill="white"/>
<rect x="21.4062" y="32.1543" width="2.67568" height="2.67953" rx="0.433006" fill="white"/>
<rect x="32.1094" y="32.1543" width="2.67568" height="2.67953" rx="0.433006" fill="white"/>
<rect x="42.8086" y="32.1543" width="2.67568" height="2.67953" rx="0.433006" fill="white"/>
<rect x="53.5117" y="32.1543" width="2.67568" height="2.67953" rx="0.433006" fill="white"/>
<rect x="64.2148" y="32.1543" width="2.67568" height="2.67953" rx="0.433006" fill="white"/>
<rect x="74.918" y="32.1543" width="2.67568" height="2.67953" rx="0.433006" fill="white"/>
<rect x="85.6211" y="32.1543" width="2.67568" height="2.67953" rx="0.433006" fill="white"/>
<rect x="96.3242" y="32.1543" width="2.67568" height="2.67953" rx="0.433006" fill="white"/>
<rect y="42.8726" width="2.67568" height="2.67953" rx="0.433006" fill="white"/>
<rect x="10.7031" y="42.8726" width="2.67568" height="2.67953" rx="0.433006" fill="white"/>
<rect x="21.4062" y="42.8726" width="2.67568" height="2.67953" rx="0.433006" fill="white"/>
<rect x="32.1094" y="42.8726" width="2.67568" height="2.67953" rx="0.433006" fill="white"/>
<rect x="42.8086" y="42.8726" width="2.67568" height="2.67953" rx="0.433006" fill="white"/>
<rect x="53.5117" y="42.8726" width="2.67568" height="2.67953" rx="0.433006" fill="white"/>
<rect x="64.2148" y="42.8726" width="2.67568" height="2.67953" rx="0.433006" fill="white"/>
<rect x="74.918" y="42.8726" width="2.67568" height="2.67953" rx="0.433006" fill="white"/>
<rect x="85.6211" y="42.8726" width="2.67568" height="2.67953" rx="0.433006" fill="white"/>
<rect x="96.3242" y="42.8726" width="2.67568" height="2.67953" rx="0.433006" fill="white"/>
<rect y="53.5908" width="2.67568" height="2.67953" rx="0.433006" fill="white"/>
<rect x="10.7031" y="53.5908" width="2.67568" height="2.67953" rx="0.433006" fill="white"/>
<rect x="21.4062" y="53.5908" width="2.67568" height="2.67953" rx="0.433006" fill="white"/>
<rect x="32.1094" y="53.5908" width="2.67568" height="2.67953" rx="0.433006" fill="white"/>
<rect x="42.8086" y="53.5908" width="2.67568" height="2.67953" rx="0.433006" fill="white"/>
<rect x="53.5117" y="53.5908" width="2.67568" height="2.67953" rx="0.433006" fill="white"/>
<rect x="64.2148" y="53.5908" width="2.67568" height="2.67953" rx="0.433006" fill="white"/>
<rect x="74.918" y="53.5908" width="2.67568" height="2.67953" rx="0.433006" fill="white"/>
<rect x="85.6211" y="53.5908" width="2.67568" height="2.67953" rx="0.433006" fill="white"/>
<rect x="96.3242" y="53.5908" width="2.67568" height="2.67953" rx="0.433006" fill="white"/>
<rect y="64.3086" width="2.67568" height="2.67953" rx="0.433006" fill="white"/>
<rect y="74.646" width="2.67568" height="2.67953" rx="0.433006" fill="white"/>
<rect y="84.9834" width="2.67568" height="2.67953" rx="0.433006" fill="white"/>
<rect y="95.3203" width="2.67568" height="2.67953" rx="0.433006" fill="white"/>
<rect x="10.7031" y="64.3086" width="2.67568" height="2.67953" rx="0.433006" fill="white"/>
<rect x="10.7031" y="74.646" width="2.67568" height="2.67953" rx="0.433006" fill="white"/>
<rect x="10.7031" y="84.9834" width="2.67568" height="2.67953" rx="0.433006" fill="white"/>
<rect x="10.7031" y="95.3203" width="2.67568" height="2.67953" rx="0.433006" fill="white"/>
<rect x="21.4062" y="64.3086" width="2.67568" height="2.67953" rx="0.433006" fill="white"/>
<rect x="21.4062" y="74.646" width="2.67568" height="2.67953" rx="0.433006" fill="white"/>
<rect x="21.4062" y="84.9834" width="2.67568" height="2.67953" rx="0.433006" fill="white"/>
<rect x="21.4062" y="95.3203" width="2.67568" height="2.67953" rx="0.433006" fill="white"/>
<rect x="32.1094" y="64.3086" width="2.67568" height="2.67953" rx="0.433006" fill="white"/>
<rect x="32.1094" y="74.646" width="2.67568" height="2.67953" rx="0.433006" fill="white"/>
<rect x="32.1094" y="84.9834" width="2.67568" height="2.67953" rx="0.433006" fill="white"/>
<rect x="32.1094" y="95.3203" width="2.67568" height="2.67953" rx="0.433006" fill="white"/>
<rect x="42.8086" y="64.3086" width="2.67568" height="2.67953" rx="0.433006" fill="white"/>
<rect x="42.8086" y="74.646" width="2.67568" height="2.67953" rx="0.433006" fill="white"/>
<rect x="42.8086" y="84.9834" width="2.67568" height="2.67953" rx="0.433006" fill="white"/>
<rect x="42.8086" y="95.3203" width="2.67568" height="2.67953" rx="0.433006" fill="white"/>
<rect x="53.5117" y="64.3086" width="2.67568" height="2.67953" rx="0.433006" fill="white"/>
<rect x="53.5117" y="74.646" width="2.67568" height="2.67953" rx="0.433006" fill="white"/>
<rect x="53.5117" y="84.9834" width="2.67568" height="2.67953" rx="0.433006" fill="white"/>
<rect x="53.5117" y="95.3203" width="2.67568" height="2.67953" rx="0.433006" fill="white"/>
<rect x="64.2148" y="64.3086" width="2.67568" height="2.67953" rx="0.433006" fill="white"/>
<rect x="64.2148" y="74.646" width="2.67568" height="2.67953" rx="0.433006" fill="white"/>
<rect x="64.2148" y="84.9834" width="2.67568" height="2.67953" rx="0.433006" fill="white"/>
<rect x="64.2148" y="95.3203" width="2.67568" height="2.67953" rx="0.433006" fill="white"/>
<rect x="74.918" y="64.3086" width="2.67568" height="2.67953" rx="0.433006" fill="white"/>
<rect x="74.918" y="74.646" width="2.67568" height="2.67953" rx="0.433006" fill="white"/>
<rect x="74.918" y="84.9834" width="2.67568" height="2.67953" rx="0.433006" fill="white"/>
<rect x="74.918" y="95.3203" width="2.67568" height="2.67953" rx="0.433006" fill="white"/>
<rect x="85.6211" y="64.3086" width="2.67568" height="2.67953" rx="0.433006" fill="white"/>
<rect x="85.6211" y="74.646" width="2.67568" height="2.67953" rx="0.433006" fill="white"/>
<rect x="85.6211" y="84.9834" width="2.67568" height="2.67953" rx="0.433006" fill="white"/>
<rect x="85.6211" y="95.3203" width="2.67568" height="2.67953" rx="0.433006" fill="white"/>
<rect x="96.3242" y="64.3086" width="2.67568" height="2.67953" rx="0.433006" fill="white"/>
<rect x="96.3242" y="74.646" width="2.67568" height="2.67953" rx="0.433006" fill="white"/>
<rect x="96.3242" y="84.9834" width="2.67568" height="2.67953" rx="0.433006" fill="white"/>
<rect x="96.3242" y="95.3203" width="2.67568" height="2.67953" rx="0.433006" fill="white"/>
</svg>
