<svg width="40" height="40" viewBox="0 0 40 40" fill="none" xmlns="http://www.w3.org/2000/svg">
<path d="M20.0007 18.3335C21.8416 18.3335 23.334 16.8411 23.334 15.0001C23.334 13.1592 21.8416 11.6668 20.0007 11.6668C18.1597 11.6668 16.6673 13.1592 16.6673 15.0001C16.6673 16.8411 18.1597 18.3335 20.0007 18.3335Z" fill="#9E2A2B"/>
<path d="M20.0007 35.0001C20.0007 35.0001 31.6673 26.9232 31.6673 16.5386C31.6673 13.4784 30.4382 10.5435 28.2502 8.37966C26.0623 6.21578 23.0948 5.00012 20.0007 5.00012C16.9065 5.00012 13.939 6.21578 11.7511 8.37966C9.56315 10.5435 8.33398 13.4784 8.33398 16.5386C8.33398 26.9232 20.0007 35.0001 20.0007 35.0001Z" fill="#9E2A2B"/>
<path d="M20.0007 18.3335C21.8416 18.3335 23.334 16.8411 23.334 15.0001C23.334 13.1592 21.8416 11.6668 20.0007 11.6668C18.1597 11.6668 16.6673 13.1592 16.6673 15.0001C16.6673 16.8411 18.1597 18.3335 20.0007 18.3335Z" stroke="#7D2525" stroke-width="4" stroke-linecap="round" stroke-linejoin="round"/>
<path d="M20.0007 35.0001C20.0007 35.0001 31.6673 26.9232 31.6673 16.5386C31.6673 13.4784 30.4382 10.5435 28.2502 8.37966C26.0623 6.21578 23.0948 5.00012 20.0007 5.00012C16.9065 5.00012 13.939 6.21578 11.7511 8.37966C9.56315 10.5435 8.33398 13.4784 8.33398 16.5386C8.33398 26.9232 20.0007 35.0001 20.0007 35.0001Z" stroke="#7D2525" stroke-width="4" stroke-linecap="round" stroke-linejoin="round"/>
<circle cx="20" cy="16.0001" r="6" fill="white"/>
</svg>
