<svg width="52" height="51" viewBox="0 0 52 51" fill="none" xmlns="http://www.w3.org/2000/svg">
<rect x="1" y="0.5" width="50" height="50" rx="8.14407" fill="#D0E1F4"/>
<path d="M36.4449 24.5388L36.4449 25.4997C36.4436 27.7521 35.7143 29.9437 34.3657 31.7477C33.0171 33.5517 31.1214 34.8714 28.9615 35.51C26.8016 36.1487 24.4931 36.072 22.3803 35.2914C20.2675 34.5108 18.4636 33.0682 17.2377 31.1787C16.0118 29.2892 15.4295 27.054 15.5777 24.8065C15.7259 22.559 16.5967 20.4197 18.0601 18.7075C19.5235 16.9953 21.5012 15.802 23.6981 15.3056C25.8951 14.8093 28.1937 15.0364 30.2511 15.9531" stroke="#3587E8" stroke-width="2.08898" stroke-linecap="round" stroke-linejoin="round"/>
<path d="M36.4449 17.1436L26 27.5989L22.8665 24.4654" stroke="#3587E8" stroke-width="2.08898" stroke-linecap="round" stroke-linejoin="round"/>
<rect x="1" y="0.5" width="50" height="50" rx="8.14407" stroke="#3587E8"/>
</svg>
