<svg width="52" height="51" viewBox="0 0 52 51" fill="none" xmlns="http://www.w3.org/2000/svg">
<rect x="1" y="0.5" width="50" height="50" rx="8.14407" fill="#D0E1F4"/>
<path d="M23.911 24.4636L25.0715 25.0394C25.6565 25.3296 26.3435 25.3296 26.9285 25.0394L28.089 24.4636M23.911 24.4636L16.5996 31.2988M23.911 24.4636L16.5996 20.2776M16.5996 31.2988V31.2988C16.5996 32.1343 17.2768 32.8115 18.1123 32.8115H33.8877C34.7232 32.8115 35.4004 32.1343 35.4004 31.2988V31.2988M16.5996 31.2988V20.2776M28.089 24.4636L35.4004 31.2988M28.089 24.4636L35.4004 20.2776M35.4004 31.2988V20.2776M16.5996 20.2776L24.9855 15.6188C25.6164 15.2683 26.3836 15.2683 27.0145 15.6188L35.4004 20.2776" stroke="#3587E8" stroke-width="1.56674" stroke-linejoin="round"/>
<rect x="1" y="0.5" width="50" height="50" rx="8.14407" stroke="#3587E8"/>
</svg>
