<svg width="18" height="18" viewBox="0 0 18 18" fill="none" xmlns="http://www.w3.org/2000/svg">
<path d="M9.83333 9.46484H14.8333C15.2936 9.46484 15.6667 9.83794 15.6667 10.2982V15.2982C15.6667 15.7584 15.2936 16.1315 14.8333 16.1315H9M9.83333 9.46484C9.3731 9.46484 9 9.83794 9 10.2982M9.83333 9.46484H15.6667C16.1269 9.46484 16.5 9.09175 16.5 8.63151V6.96484C16.5 6.50461 16.1269 6.13151 15.6667 6.13151H9.83333C9.3731 6.13151 9 6.50461 9 6.96484M9.83333 9.46484C9.3731 9.46484 9 9.09175 9 8.63151M9 16.1315V10.2982M9 16.1315H3.16667C2.70643 16.1315 2.33333 15.7584 2.33333 15.2982V10.2982C2.33333 9.83794 2.70643 9.46484 3.16667 9.46484H8.16667M9 10.2982C9 9.83794 8.6269 9.46484 8.16667 9.46484M8.16667 9.46484H2.33333C1.8731 9.46484 1.5 9.09175 1.5 8.63151V6.96484C1.5 6.50461 1.8731 6.13151 2.33333 6.13151H8.16667C8.6269 6.13151 9 6.50461 9 6.96484M8.16667 9.46484C8.6269 9.46484 9 9.09175 9 8.63151M9 8.63151V6.96484M9 4.04818V6.13151M9 4.04818C9 2.89758 9.93274 1.96484 11.0833 1.96484C12.2339 1.96484 13.1667 2.89758 13.1667 4.04818C13.1667 5.19877 12.2339 6.13151 11.0833 6.13151H9M9 4.04818C9 2.89758 8.06726 1.96484 6.91667 1.96484C5.76607 1.96484 4.83333 2.89758 4.83333 4.04818C4.83333 5.19877 5.76607 6.13151 6.91667 6.13151H9" stroke="#1E1E1E" stroke-width="2" stroke-linecap="round" stroke-linejoin="round"/>
</svg>
