<svg height="143.202348" viewBox="0 0 694 142" width="698.312573" xmlns="http://www.w3.org/2000/svg"><g fill="#ff1c25"><path d="m104.152344 35.730469c-.082032 1.183593-.164063 2.328125-.34375 3.464843h-66.03125c-.171875-1.136718-.292969-2.28125-.332032-3.464843zm-.855469 5.960937c-.210937 1.035156-.503906 2.027344-.839844 2.996094h-63.328125c-.335937-.96875-.613281-1.960938-.875-2.996094zm-61.734375 8.476563-1.285156-2.507813h61.03125l-1.277344 2.507813zm4.101562 5.8125-1.914062-2.351563h54.09375l-1.914062 2.351563zm6.421876 5.644531c-.9375-.632812-1.875-1.308594-2.71875-2.050781h42.847656c-.84375.742187-1.777344 1.417969-2.738282 2.050781zm18.675781 5.699219c-4.058594 0-8.015625-.75-11.667969-2.082031h23.390625c-3.628906 1.332031-7.601563 2.082031-11.722656 2.082031m0-66.480469c7.898437 0 15.097656 2.710938 20.804687 7.203125h-41.527344c5.683594-4.492187 12.898438-7.203125 20.722657-7.203125m22.285156 8.476562c1.894531 1.691407 3.640625 3.628907 5.121094 5.703126h-54.75c1.484375-2.074219 3.21875-4.011719 5.128906-5.703126zm6.109375 7.195313c.96875 1.519531 1.777344 3.132813 2.46875 4.789063h-61.667969c.691407-1.65625 1.535157-3.269532 2.488281-4.789063zm3.152344 6.511719c.5 1.4375.914062 2.878906 1.210937 4.410156h-65.476562c.332031-1.53125.730469-2.972656 1.214843-4.410156zm1.582031 6.441406c.160156 1.226562.238281 2.480469.289063 3.773438h-66.761719c.027343-1.292969.117187-2.546876.289062-3.773438zm0 0"/><path d="m139.746094 56.714844v82.574218h-65.710938v-31.324218s-4.460937-51.25 65.710938-51.25"/><path d="m.664062 56.714844v82.574218h65.707032v-31.324218s4.453125-51.25-65.707032-51.25"/><path d="m245.847656 64.269531c.960938-2.625 1.835938-5.140625 1.835938-7.785156v-.117187h21.53125v.371093c-2.980469.875-3.835938 4.519531-3.835938 7.421875l8.179688 61.667969c.773437 5.894531 1.378906 9.300781 6.375 12.8125v.386719h-24.046875v-.386719c4.378906-1.402344 5.113281-5.15625 5.113281-9.433594l-7.074219-60.535156-27.894531 71.980469c-6.199219-4.792969-7.957031-8.167969-10.945312-15.207032l-23.648438-56.652343-7.097656 54.007812c-.976563 7.671875-1.863282 13.199219 3.984375 15.839844v.386719h-20.285157v-.386719c5.242188-4.648437 6.011719-10.789063 6.976563-17.578125l7.082031-52.632812c.511719-3.527344 1.898438-8.554688-3.855468-11.691407v-.371093h21.777343v.117187c0 2.027344.996094 3.910156 1.757813 5.652344l23.351562 55.386719zm0 0"/><path d="m309.789062 108-6.457031 17.675781c-2.617187 7.050781-3.492187 10.699219 2.488281 12.964844v.378906h-22.898437v-.378906c7.199219-3.664063 9.3125-10.683594 12.070313-17.855469l20.769531-52.359375c1.746093-4.542969 4.113281-9.808593-1.871094-11.695312v-.363281h19.671875l25.878906 64.417968c2.882813 7.171875 5.113282 14.191406 12.195313 17.855469v.378906h-25.496094v-.378906c6.0625-2.785156 5.070313-4.144531 1.738281-12.964844l-6.714844-17.675781zm15.601563-40.949219-12.367187 31.628907h24.523437zm0 0"/><path d="m401.648438 122.6875c0 7.53125 0 11.304688 6.347656 15.953125v.386719h-24.28125v-.386719c6.101562-3.144531 5.238281-11.296875 5.238281-17.199219v-18.613281l-20.667969-33.535156c-3.339844-5.503907-5.84375-9.664063-11.816406-12.925781h11.328125c3.957031 0 7.695313.882812 9.316406 3.507812l19.898438 32.765625 15.425781-23.347656c2.136719-3.140625 4.992188-9.148438-1.964844-12.554688v-.371093h21.765625l-30.589843 46.460937zm0 0"/><path d="m524.246094 96.828125c0 25.589844-21.035156 44.191406-45.800782 44.191406-24.652343 0-45.425781-17.847656-45.425781-43.578125 0-23.871094 20.511719-43.847656 46.667969-43.21875 26.140625-.117187 44.558594 19.976563 44.558594 42.605469m-77.035156-.503906c0 17.566406 12.332031 35.644531 31.851562 35.644531 18.925781 0 30.96875-13.9375 30.96875-32.652344 0-18.324218-11.558594-36.039062-31.214844-36.039062-19.273437 0-31.605468 14.054687-31.605468 33.046875"/><path d="m559.203125 56.367188c16.691406 0 25.75 8.796874 25.75 20.207031 0 11.0625-9.554687 19.75-19.785156 22.105469l17.910156 22.753906c5.257813 6.527344 13.101563 13.066406 20.183594 17.585937h-11.429688c-6.625 0-10.71875-1.644531-14.476562-6.292969l-15.144531-18.957031-11.457032-17.714843c9.929688-1.492188 21.511719-6.171876 21.511719-17.960938 0-9.039062-7.722656-14.304688-16.074219-13.941406-2.855468.117187-5.566406.496094-8.425781 1.011718v56.269532c0 5.777344-.78125 14.941406 5.570313 17.207031v.378906h-23.753907v-.378906c6.351563-2.265625 5.488281-11.566406 5.488281-17.207031v-47.347656c0-5.792969.863282-14.957032-5.488281-17.355469v-.363281zm0 0"/><path d="m630.476562 108-6.460937 17.675781c-2.628906 7.050781-3.472656 10.699219 2.503906 12.964844v.378906h-22.933593v-.378906c7.203124-3.664063 9.347656-10.683594 12.105468-17.855469l20.75-52.34375c1.753906-4.542968 4.140625-9.824218-1.855468-11.710937v-.363281h19.65625l25.878906 64.417968c2.898437 7.171875 5.109375 14.191406 12.203125 17.855469v.378906h-25.523438v-.378906c6.136719-2.765625 5.117188-4.144531 1.757813-12.964844l-6.714844-17.675781zm15.539063-40.949219-12.300781 31.628907h24.515625zm0 0"/></g><path d="m29.171064 877.063291h-14.999576m1308.263182 0h14.999576m-1308.263182-841.893218h-14.999576m1308.263182 0h14.999576m-1302.259941 847.894229v14.998265m0-868.893505v-14.998264m1281.257124 868.893504v14.998265m0-868.893505v-14.998264" fill="none" stroke="#fff" stroke-miterlimit="10" stroke-width="1.25" transform="matrix(.916172 0 0 -.916512 -33.76086 172.936929)"/></svg>